<svg xmlns="http://www.w3.org/2000/svg" viewBox="0 0 380 86" fill="none">
  <!-- Shield mark -->
  <path d="M38 2L4 16V44C4 62 17 77 38 83C59 77 72 62 72 44V16L38 2Z" stroke="#4A8FD4" stroke-width="2.2" fill="none"/>
  <path d="M38 8L12 20V44C12 58 22 70 38 75C54 70 64 58 64 44V20L38 8Z" stroke="#4A8FD4" stroke-width="0.7" fill="rgba(74,143,212,0.04)" opacity="0.5"/>
  <ellipse cx="38" cy="40" rx="16" ry="10" stroke="#4A8FD4" stroke-width="1.6" fill="none"/>
  <circle cx="38" cy="40" r="5.5" stroke="#4A8FD4" stroke-width="1.3" fill="none"/>
  <circle cx="38" cy="40" r="2.2" fill="#4A8FD4"/>
  <circle cx="39.5" cy="38.5" r="1" fill="#0C0F15" opacity="0.6"/>
  <path d="M22 40C27 31 33 27 38 27C43 27 49 31 54 40" stroke="#4A8FD4" stroke-width="0.7" fill="none" opacity="0.3"/>
  <g transform="translate(25,64)" opacity="0.4">
    <rect width="4" height="4" rx="1" fill="#4A8FD4"/><line x1="6" y1="2" x2="8" y2="2" stroke="#4A8FD4" stroke-width="0.7"/>
    <rect x="10" width="4" height="4" rx="1" fill="#4A8FD4"/><line x1="16" y1="2" x2="18" y2="2" stroke="#4A8FD4" stroke-width="0.7"/>
    <rect x="20" width="4" height="4" rx="1" fill="#4A8FD4"/>
  </g>
  <!-- Wordmark -->
  <text x="94" y="46" font-family="system-ui, -apple-system, 'Segoe UI', sans-serif" font-size="44" font-weight="700" fill="#C8CDD5" letter-spacing="7">HEIMDALL</text>
  <!-- Tagline -->
  <text x="96" y="70" font-family="ui-monospace, 'SF Mono', Menlo, monospace" font-size="10" fill="#555F72" letter-spacing="3">RUNTIME GOVERNANCE</text>
</svg>
